# xmcd
#
# Track frame offsets:
#	150
#	9867
#	23757
#	34752
#	46325
#	59495
#	70277
#	83220
#	94672
#	107725
#	120585
#	130597
#	143852
#	157832
#	167815
#	178290
#	190232
#	203555
#	216665
#	229882
#	243097
#	255980
#	267667
#	281030
#	295535
#
# Disc length: 4180
#
# Revision: 1
# Processed by: cddbd v1.5.1PL0 Copyright (c) Steve Scherf et al.
# Submitted via: Axialis_AX_CDPlayer 2.6
# Normalized: r0:DSETVAR1,TDELIM( - )
#
DISCID=63105219
DTITLE=Various Artist - Capitol Blues Collection Sampler
DYEAR=1900
DGENRE=
TTITLE0=5 Months, 2 Weeks, 2 Days - Louis Prima
TTITLE1=I'll Die Happy - Louis Jordan
TTITLE2=Oh Babe - Kay Starr
TTITLE3=Insect Ball - Big Jay McNeely
TTITLE4=Solid Potato Salad - Ella Mae Morse
TTITLE5=I Ain't Drunk - Jimmy Liggins
TTITLE6=Louisana Stomp - Clifton Chenier
TTITLE7=New Arrival - Guitar Slim
TTITLE8=I Can't Fly - Boo Breeding
TTITLE9=New Bon Ton Roulay - Clarence Garlow
TTITLE10=Paper In My Show - Boo Zoo Chavis
TTITLE11=Moten Swing - Jay McShann
TTITLE12=Confession' The Blues - Jay McShann, with Jimmy Witherspoon
TTITLE13=My Man Stands Out - Julia Lee
TTITLE14=Baby You Messed Up - Bus
TTITLE15=Sister Flat Top - Tiny Kennedy
TTITLE16=Let's Love Awhile - Walter Brown, with Jay McShann and Ben Webster
TTITLE17=Slow Down Baby - Walter Brown, with Jay McShann and Ben Webster
TTITLE18=Mizzou - Tommy Douglas
TTITLE19=Gee Baby, Ain't I Good To You - King Cole Trio
TTITLE20=Rollin' Like A Pebble In The Sand - Charles Brown
TTITLE21=Tired, Broke And Busted - Floyd Dixon
TTITLE22=Farther On Up The Road - Shakey Jake
TTITLE23=Juke - George "Harmonica" Smith
TTITLE24=Nose Open - James Cotton
EXTD=
EXTT0=
EXTT1=
EXTT2=
EXTT3=
EXTT4=
EXTT5=
EXTT6=
EXTT7=
EXTT8=
EXTT9=
EXTT10=
EXTT11=
EXTT12=
EXTT13=
EXTT14=
EXTT15=
EXTT16=
EXTT17=
EXTT18=
EXTT19=
EXTT20=
EXTT21=
EXTT22=
EXTT23=
EXTT24=
PLAYORDER=
